<?xml version="1.0" encoding="UTF-8"?><svg xmlns="http://www.w3.org/2000/svg" xmlns:xlink="http://www.w3.org/1999/xlink" viewBox="0 0 600 600"><defs><style>.j{fill:url(#c);}.k{fill:url(#f);}.l{fill:url(#g);}.m{fill:url(#i);}.n{fill:url(#h);}.o{fill:url(#d);}.p{fill:url(#e);}</style><linearGradient id="c" x1="143.34" y1="189.99" x2="157.88" y2="189.99" gradientTransform="matrix(1, 0, 0, 1, 0, 0)" gradientUnits="userSpaceOnUse"><stop offset="0" stop-color="#046bee"/><stop offset="1" stop-color="#2a005d"/></linearGradient><linearGradient id="d" x1="163.5" y1="189.81" x2="178.03" y2="189.81" xlink:href="#c"/><linearGradient id="e" x1="147.06" y1="212.12" x2="161.6" y2="212.12" xlink:href="#c"/><linearGradient id="f" x1="124.91" y1="235.25" x2="139.44" y2="235.25" xlink:href="#c"/><linearGradient id="g" x1="112.19" y1="212.58" x2="126.73" y2="212.58" xlink:href="#c"/><linearGradient id="h" x1="132.92" y1="227.69" x2="358.93" y2="227.69" xlink:href="#c"/><linearGradient id="i" x1="261.8" y1="372.31" x2="487.81" y2="372.31" xlink:href="#c"/></defs><g id="a"/><g id="b"><g><rect class="j" x="143.34" y="182.72" width="14.54" height="14.54"/><rect class="o" x="163.5" y="182.54" width="14.54" height="14.54"/><rect class="p" x="147.06" y="204.85" width="14.54" height="14.54"/><rect class="k" x="124.91" y="227.98" width="14.54" height="14.54"/><rect class="l" x="112.19" y="205.31" width="14.54" height="14.54"/><path class="n" d="M188.93,219.85h-14.54v-6.53c-3.56,4.47-6.93,9.09-10.12,13.83v14.21h-8.79c-9.62,17-16.92,35.29-21.5,54.26l-1.05,4.35h111.53v-11.35h9.91v-31.45h-31.45v9.84h-28.13c12.27-22.66,29.77-42.4,51.14-57.32,30.5,21.29,53.15,52.37,63.9,87.79l.77,2.53h48.34l-1.06-4.4c-.38-1.59-.83-3.16-1.25-4.74-6.55-24.52-17.61-47.8-32.39-68.51-10.4-14.59-22.61-27.92-36.39-39.5-12.38-10.4-25.94-19.38-40.31-26.7l-1.62-.82-1.62,.82c-14.36,7.31-27.92,16.29-40.3,26.7-.3,.25-.59,.52-.88,.77v13.35h-14.29c-2.65,2.71-5.23,5.47-7.72,8.31h7.81v14.54Zm12.16,22.89h-14.54v-14.54h14.54v14.54Z"/><path class="m" d="M376.28,311.38h-9.91v31.45h31.45v-9.84h28.13c-12.27,22.66-29.77,42.4-51.14,57.32-30.5-21.29-53.15-52.37-63.9-87.79l-.77-2.53h-48.34l1.06,4.4c.38,1.59,.83,3.16,1.25,4.74,6.55,24.52,17.61,47.8,32.39,68.51,10.4,14.59,22.61,27.92,36.39,39.5,12.38,10.4,25.94,19.38,40.31,26.7l1.62,.82,1.62-.82c14.36-7.31,27.92-16.29,40.3-26.7,34.62-29.07,59.49-69.1,70.03-112.75l1.05-4.35h-111.53v11.35Z"/></g></g></svg>