<?xml version="1.0" encoding="UTF-8" standalone="no"?>
<svg
   viewBox="0 0 359855.41 277170"
   version="1.1"
   id="svg6"
   sodipodi:docname="ICON AORIIX_NEGRO.svg"
   width="359855.41"
   height="277170"
   xmlns:inkscape="http://www.inkscape.org/namespaces/inkscape"
   xmlns:sodipodi="http://sodipodi.sourceforge.net/DTD/sodipodi-0.dtd"
   xmlns="http://www.w3.org/2000/svg"
   xmlns:svg="http://www.w3.org/2000/svg">
  <defs
     id="defs6" />
  <sodipodi:namedview
     id="namedview6"
     pagecolor="#ffffff"
     bordercolor="#000000"
     borderopacity="0.25"
     inkscape:showpageshadow="2"
     inkscape:pageopacity="0.0"
     inkscape:pagecheckerboard="0"
     inkscape:deskcolor="#d1d1d1"
     inkscape:zoom="0.95812969"
     inkscape:cx="391.90937"
     inkscape:cy="367.90427"
     inkscape:window-width="1920"
     inkscape:window-height="1009"
     inkscape:window-x="-8"
     inkscape:window-y="281"
     inkscape:window-maximized="1"
     inkscape:current-layer="svg6" />
  <g
     id="a"
     style="display:inline"
     transform="translate(-75.295296,-41414.996)" />
  <g
     id="b"
     style="display:inline"
     transform="matrix(1.596675,0,0,1.596675,-254.30078,-41593.999)">
    <g
       id="g6">
      <rect
         x="143.34"
         y="182.72"
         width="14.54"
         height="14.54"
         id="rect1" />
      <rect
         x="163.5"
         y="182.53999"
         width="14.54"
         height="14.54"
         id="rect2" />
      <rect
         x="147.06"
         y="204.85001"
         width="14.54"
         height="14.54"
         id="rect3" />
      <rect
         x="124.91"
         y="227.98"
         width="14.54"
         height="14.54"
         id="rect4" />
      <rect
         x="112.19"
         y="205.31"
         width="14.54"
         height="14.54"
         id="rect5" />
      <path
         d="m 188.93,219.85 h -14.54 v -6.53 c -3.56,4.47 -6.93,9.09 -10.12,13.83 v 14.21 h -8.79 c -9.62,17 -16.92,35.29 -21.5,54.26 l -1.05,4.35 h 111.53 v -11.35 h 9.91 v -31.45 h -31.45 v 9.84 h -28.13 c 12.27,-22.66 29.77,-42.4 51.14,-57.32 30.5,21.29 53.15,52.37 63.9,87.79 l 0.77,2.53 h 48.34 l -1.06,-4.4 c -0.38,-1.59 -0.83,-3.16 -1.25,-4.74 -6.55,-24.52 -17.61,-47.8 -32.39,-68.51 -10.4,-14.59 -22.61,-27.92 -36.39,-39.5 -12.38,-10.4 -25.94,-19.38 -40.31,-26.7 l -1.62,-0.82 -1.62,0.82 c -14.36,7.31 -27.92,16.29 -40.3,26.7 -0.3,0.25 -0.59,0.52 -0.88,0.77 v 13.35 h -14.29 c -2.65,2.71 -5.23,5.47 -7.72,8.31 h 7.81 v 14.54 z m 12.16,22.89 H 186.55 V 228.2 h 14.54 z"
         id="path5" />
      <path
         d="m 376.28,311.38 h -9.91 v 31.45 h 31.45 v -9.84 h 28.13 c -12.27,22.66 -29.77,42.4 -51.14,57.32 -30.5,-21.29 -53.15,-52.37 -63.9,-87.79 l -0.77,-2.53 H 261.8 l 1.06,4.4 c 0.38,1.59 0.83,3.16 1.25,4.74 6.55,24.52 17.61,47.8 32.39,68.51 10.4,14.59 22.61,27.92 36.39,39.5 12.38,10.4 25.94,19.38 40.31,26.7 l 1.62,0.82 1.62,-0.82 c 14.36,-7.31 27.92,-16.29 40.3,-26.7 34.62,-29.07 59.49,-69.1 70.03,-112.75 l 1.05,-4.35 H 376.29 v 11.35 z"
         id="path6" />
    </g>
  </g>
</svg>
