<?xml version="1.0" encoding="UTF-8"?><svg xmlns="http://www.w3.org/2000/svg" viewBox="0 0 600 600"><defs><style>.c{fill:#fff;}</style></defs><g id="a"/><g id="b"><g><rect class="c" x="143.34" y="182.72" width="14.54" height="14.54"/><rect class="c" x="163.5" y="182.54" width="14.54" height="14.54"/><rect class="c" x="147.06" y="204.85" width="14.54" height="14.54"/><rect class="c" x="124.91" y="227.98" width="14.54" height="14.54"/><rect class="c" x="112.19" y="205.31" width="14.54" height="14.54"/><path class="c" d="M188.93,219.85h-14.54v-6.53c-3.56,4.47-6.93,9.09-10.12,13.83v14.21h-8.79c-9.62,17-16.92,35.29-21.5,54.26l-1.05,4.35h111.53v-11.35h9.91v-31.45h-31.45v9.84h-28.13c12.27-22.66,29.77-42.4,51.14-57.32,30.5,21.29,53.15,52.37,63.9,87.79l.77,2.53h48.34l-1.06-4.4c-.38-1.59-.83-3.16-1.25-4.74-6.55-24.52-17.61-47.8-32.39-68.51-10.4-14.59-22.61-27.92-36.39-39.5-12.38-10.4-25.94-19.38-40.31-26.7l-1.62-.82-1.62,.82c-14.36,7.31-27.92,16.29-40.3,26.7-.3,.25-.59,.52-.88,.77v13.35h-14.29c-2.65,2.71-5.23,5.47-7.72,8.31h7.81v14.54Zm12.16,22.89h-14.54v-14.54h14.54v14.54Z"/><path class="c" d="M376.28,311.38h-9.91v31.45h31.45v-9.84h28.13c-12.27,22.66-29.77,42.4-51.14,57.32-30.5-21.29-53.15-52.37-63.9-87.79l-.77-2.53h-48.34l1.06,4.4c.38,1.59,.83,3.16,1.25,4.74,6.55,24.52,17.61,47.8,32.39,68.51,10.4,14.59,22.61,27.92,36.39,39.5,12.38,10.4,25.94,19.38,40.31,26.7l1.62,.82,1.62-.82c14.36-7.31,27.92-16.29,40.3-26.7,34.62-29.07,59.49-69.1,70.03-112.75l1.05-4.35h-111.53v11.35Z"/></g></g></svg>