<?xml version="1.0" encoding="UTF-8"?><svg xmlns="http://www.w3.org/2000/svg" viewBox="0 0 600 600"><g id="a"/><g id="b"><g><polygon points="455.93 377.59 445.33 361.54 424.73 361.54 424.73 454.86 444 454.86 455.93 436.94 455.93 377.59"/><polygon points="522.23 407.13 552.5 361.54 517.7 361.54 504.1 383.8 490.64 361.54 465.77 361.54 455.18 361.54 465.77 377.59 485.44 407.4 465.77 436.94 453.84 454.86 465.77 454.86 488.64 454.86 503.57 430.59 518.37 454.86 553.83 454.86 522.23 407.13"/><path d="M236.35,359.54c-26.48,0-47.38,18.27-50.59,42.25,10.21,14.32,17.86,30.4,22.38,47.35,7.94,4.88,17.48,7.72,27.94,7.72,19.42,0,35.84-9.85,44.49-24.55,4.18-7.09,6.57-15.3,6.57-24.11v-.26c0-8.86-2.39-17.07-6.57-24.15-8.59-14.56-24.85-24.24-44.23-24.24Zm19.33,48.93c0,10.93-7.47,20.8-19.33,20.8s-19.6-10-19.6-21.07v-.26c0-10.93,7.47-20.8,19.33-20.8s19.6,10,19.6,21.06v.27Z"/><polygon points="383.4 454.86 391.31 454.86 414.93 454.86 414.93 361.54 414.93 360.61 383.4 360.61 383.4 454.86"/><path d="M200.76,449.13c-4.52-16.94-12.17-33.03-22.38-47.34-7.19-10.08-15.62-19.29-25.15-27.29-8.55-7.19-17.92-13.39-27.85-18.45l-1.12-.57-1.12,.57c-9.93,5.05-19.3,11.26-27.85,18.45-23.92,20.09-41.11,47.75-48.4,77.91l-.73,3.04h17.87v.08h59.21v-22.88h-34.32c8.48-15.66,20.57-29.3,35.34-39.61,21.08,14.71,36.73,36.19,44.16,60.67l.53,1.75h33.41l-.73-3.04c-.26-1.1-.57-2.18-.86-3.27Z"/><rect x="203.81" y="160.37" width="9.16" height="9.16"/><rect x="216.5" y="160.26" width="9.16" height="9.16"/><rect x="206.15" y="174.31" width="9.16" height="9.16"/><rect x="192.2" y="188.87" width="9.16" height="9.16"/><rect x="184.19" y="174.6" width="9.16" height="9.16"/><path d="M232.51,183.75h-9.16v-4.11c-2.24,2.82-4.37,5.72-6.38,8.71v8.95h-5.54c-6.06,10.71-10.65,22.22-13.54,34.17l-.66,2.74h70.23v-7.15h6.24v-19.8h-19.8v6.2h-17.71c7.73-14.27,18.74-26.7,32.2-36.09,19.21,13.4,33.47,32.98,40.24,55.28l.48,1.59h30.44l-.67-2.77c-.24-1-.52-1.99-.79-2.98-4.12-15.44-11.09-30.1-20.39-43.14-6.55-9.18-14.24-17.58-22.92-24.87-7.79-6.55-16.33-12.2-25.38-16.81l-1.02-.52-1.02,.52c-9.04,4.6-17.58,10.26-25.37,16.81-.19,.16-.37,.33-.56,.49v8.41h-9c-1.67,1.7-3.29,3.44-4.86,5.23h4.92v9.16Zm7.66,14.41h-9.16v-9.16h9.16v9.16Z"/><path d="M350.49,241.39h-6.24v19.8h19.8v-6.2h17.71c-7.73,14.27-18.74,26.7-32.2,36.09-19.21-13.4-33.47-32.98-40.24-55.28l-.48-1.59h-30.44l.67,2.77c.24,1,.52,1.99,.79,2.98,4.12,15.44,11.09,30.1,20.39,43.14,6.55,9.18,14.24,17.58,22.92,24.87,7.79,6.55,16.33,12.2,25.38,16.81l1.02,.52,1.02-.52c9.04-4.6,17.58-10.26,25.37-16.81,21.8-18.3,37.46-43.51,44.1-71l.66-2.74h-70.23v7.15Z"/><path d="M357.28,423.13c6.11-2.95,10.96-7.07,14.15-12.36,2.73-4.53,4.25-9.91,4.25-16.17v-.27c0-6.72-1.47-12.11-4.25-16.67-1.19-1.96-2.6-3.78-4.29-5.46-6.53-6.53-17.06-10.67-33.6-10.67h-45.59v22.24c4.18,7.08,6.57,15.3,6.57,24.15v.26c0,8.81-2.39,17.02-6.57,24.11v22.55h31.2v-26.66h6.67l17.6,26.66h35.6l-7.58-11.07-14.15-20.66Zm-20.05-26.27c0,5.73-4.53,9.07-12,9.07h-13.47v-18.26h13.6c7.2,0,11.87,2.93,11.87,8.93v.27Z"/></g></g></svg>