<?xml version="1.0" encoding="UTF-8"?><svg xmlns="http://www.w3.org/2000/svg" viewBox="0 0 600 600"><defs><style>.c{fill:#fff;}</style></defs><g id="a"/><g id="b"><g><polygon class="c" points="429.53 364.46 420.73 351.12 403.62 351.12 403.62 428.64 419.62 428.64 429.53 413.75 429.53 364.46"/><polygon class="c" points="484.61 388.99 509.75 351.12 480.84 351.12 469.55 369.61 458.36 351.12 437.71 351.12 428.9 351.12 437.71 364.46 454.04 389.22 437.71 413.75 427.8 428.64 437.71 428.64 456.7 428.64 469.11 408.48 481.4 428.64 510.86 428.64 484.61 388.99"/><path class="c" d="M247.12,349.46c-21.99,0-39.36,15.18-42.02,35.1,8.48,11.89,14.83,25.25,18.59,39.33,6.59,4.05,14.52,6.42,23.21,6.42,16.14,0,29.77-8.18,36.96-20.39,3.47-5.89,5.46-12.71,5.46-20.03v-.22c0-7.36-1.99-14.18-5.46-20.07-7.14-12.1-20.64-20.14-36.74-20.14Zm16.06,40.64c0,9.08-6.2,17.28-16.06,17.28s-16.28-8.31-16.28-17.5v-.22c0-9.08,6.2-17.28,16.06-17.28s16.28,8.31,16.28,17.5v.22Z"/><polygon class="c" points="369.28 428.64 375.85 428.64 395.47 428.64 395.47 351.12 395.47 350.35 369.28 350.35 369.28 428.64"/><path class="c" d="M217.56,423.89c-3.76-14.08-10.11-27.44-18.59-39.33-5.97-8.37-12.98-16.03-20.89-22.67-7.1-5.97-14.89-11.13-23.14-15.33l-.93-.47-.93,.47c-8.25,4.2-16.03,9.35-23.13,15.33-19.87,16.68-34.15,39.67-40.2,64.72l-.61,2.52h14.84v.06h49.18v-19.01h-28.51c7.04-13.01,17.09-24.34,29.36-32.9,17.51,12.22,30.51,30.06,36.68,50.4l.44,1.45h27.75l-.61-2.52c-.22-.91-.47-1.81-.72-2.72Z"/><rect class="c" x="220.09" y="184.01" width="7.61" height="7.61"/><rect class="c" x="230.63" y="183.92" width="7.61" height="7.61"/><rect class="c" x="222.04" y="195.59" width="7.61" height="7.61"/><rect class="c" x="210.45" y="207.69" width="7.61" height="7.61"/><rect class="c" x="203.8" y="195.83" width="7.61" height="7.61"/><path class="c" d="M243.94,203.43h-7.61v-3.42c-1.86,2.34-3.63,4.75-5.3,7.23v7.43h-4.6c-5.03,8.89-8.85,18.46-11.25,28.38l-.55,2.27h58.34v-5.94h5.18v-16.45h-16.45v5.15h-14.71c6.42-11.85,15.57-22.18,26.75-29.98,15.96,11.13,27.8,27.4,33.43,45.92l.4,1.32h25.29l-.56-2.3c-.2-.83-.43-1.65-.65-2.48-3.42-12.83-9.21-25-16.94-35.84-5.44-7.63-11.83-14.6-19.04-20.66-6.47-5.44-13.57-10.14-21.08-13.97l-.84-.43-.84,.43c-7.51,3.82-14.61,8.52-21.08,13.97-.16,.13-.31,.27-.46,.4v6.98h-7.47c-1.38,1.42-2.73,2.86-4.04,4.35h4.09v7.61Zm6.36,11.97h-7.61v-7.61h7.61v7.61Z"/><path class="c" d="M341.94,251.31h-5.18v16.45h16.45v-5.15h14.71c-6.42,11.85-15.57,22.18-26.75,29.98-15.96-11.13-27.8-27.4-33.43-45.92l-.4-1.32h-25.29l.56,2.3c.2,.83,.43,1.65,.65,2.48,3.42,12.83,9.21,25,16.94,35.84,5.44,7.63,11.83,14.61,19.04,20.66,6.47,5.44,13.57,10.14,21.08,13.97l.84,.43,.84-.43c7.51-3.82,14.61-8.52,21.08-13.97,18.11-15.2,31.12-36.15,36.63-58.98l.55-2.27h-58.34v5.94Z"/><path class="c" d="M347.58,402.28c5.07-2.45,9.1-5.87,11.75-10.26,2.27-3.76,3.53-8.23,3.53-13.44v-.22c0-5.58-1.22-10.06-3.53-13.85-.99-1.63-2.16-3.14-3.56-4.54-5.43-5.43-14.18-8.86-27.91-8.86h-37.88v18.48c3.47,5.88,5.46,12.71,5.46,20.06v.22c0,7.32-1.99,14.14-5.46,20.03v18.73h25.91v-22.15h5.54l14.62,22.15h29.57l-6.3-9.19-11.75-17.16Zm-16.65-21.82c0,4.76-3.76,7.53-9.97,7.53h-11.19v-15.17h11.3c5.98,0,9.86,2.44,9.86,7.42v.22Z"/></g></g></svg>